<svg width="637" height="410" viewBox="0 0 637 410" fill="none" xmlns="http://www.w3.org/2000/svg">
<g filter="url(#filter0_d_40_1505)">
<g opacity="0.4" filter="url(#filter1_f_40_1505)">
<ellipse cx="318.603" cy="362.972" rx="274.103" ry="3.02876" fill="black"/>
</g>
<path d="M73.3633 36C73.3633 21.0883 85.4516 9 100.363 9H538.658C553.569 9 565.658 21.0883 565.658 36V339.587C565.658 341.244 564.314 342.587 562.658 342.587H76.3633C74.7064 342.587 73.3633 341.244 73.3633 339.587V36Z" fill="#E2E8F0" stroke="#CBD5E0" stroke-width="2"/>
<path d="M75.3916 33.0283C75.3916 20.878 85.2413 11.0283 97.3916 11.0283H541.628C553.779 11.0283 563.628 20.8781 563.628 33.0283V330.866H75.3916V33.0283Z" fill="#E2E8F0"/>
<rect x="85.084" y="26.7783" width="466.43" height="290.761" fill="white"/>
<path d="M13 343.165C13 342.06 13.8954 341.165 15 341.165H621.599C622.703 341.165 623.599 342.06 623.599 343.165V352.068H13V343.165Z" fill="#E2E8F0"/>
<path d="M13 343.165C13 342.06 13.8954 341.165 15 341.165H621.599C622.703 341.165 623.599 342.06 623.599 343.165V352.068H13V343.165Z" fill="url(#paint0_linear_40_1505)"/>
<path d="M13 352.068H623.599C599.776 361.277 574.456 366.001 548.915 366.001H81.2648C57.8039 366.001 34.5846 361.262 13 352.068Z" fill="#E2E8F0"/>
<path d="M13 352.068H623.599C599.776 361.277 574.456 366.001 548.915 366.001H81.2648C57.8039 366.001 34.5846 361.262 13 352.068Z" fill="url(#paint1_linear_40_1505)"/>
<path fill-rule="evenodd" clip-rule="evenodd" d="M268.042 341.165C268.354 345.9 272.294 349.645 277.108 349.645H360.097C364.911 349.645 368.851 345.9 369.163 341.165H268.042Z" fill="#E2E8F0"/>
<path fill-rule="evenodd" clip-rule="evenodd" d="M268.042 341.165C268.354 345.9 272.294 349.645 277.108 349.645H360.097C364.911 349.645 368.851 345.9 369.163 341.165H268.042Z" fill="url(#paint2_linear_40_1505)"/>
</g>
<defs>
<filter id="filter0_d_40_1505" x="1.4" y="0.4" width="633.799" height="381.2" filterUnits="userSpaceOnUse" color-interpolation-filters="sRGB">
<feFlood flood-opacity="0" result="BackgroundImageFix"/>
<feColorMatrix in="SourceAlpha" type="matrix" values="0 0 0 0 0 0 0 0 0 0 0 0 0 0 0 0 0 0 127 0" result="hardAlpha"/>
<feMorphology radius="15" operator="erode" in="SourceAlpha" result="effect1_dropShadow_40_1505"/>
<feOffset dy="4"/>
<feGaussianBlur stdDeviation="13.3"/>
<feComposite in2="hardAlpha" operator="out"/>
<feColorMatrix type="matrix" values="0 0 0 0 0 0 0 0 0 0 0 0 0 0 0 0 0 0 0.25 0"/>
<feBlend mode="normal" in2="BackgroundImageFix" result="effect1_dropShadow_40_1505"/>
<feBlend mode="normal" in="SourceGraphic" in2="effect1_dropShadow_40_1505" result="shape"/>
</filter>
<filter id="filter1_f_40_1505" x="0.5" y="315.943" width="636.206" height="94.0576" filterUnits="userSpaceOnUse" color-interpolation-filters="sRGB">
<feFlood flood-opacity="0" result="BackgroundImageFix"/>
<feBlend mode="normal" in="SourceGraphic" in2="BackgroundImageFix" result="shape"/>
<feGaussianBlur stdDeviation="22" result="effect1_foregroundBlur_40_1505"/>
</filter>
<linearGradient id="paint0_linear_40_1505" x1="13" y1="346.616" x2="623.599" y2="346.616" gradientUnits="userSpaceOnUse">
<stop stop-color="#B7C2D0"/>
<stop offset="0.0295345" stop-color="#CAD4DB"/>
<stop offset="0.7" stop-color="#BECCDE"/>
<stop offset="0.865867" stop-color="#B7C2D0" stop-opacity="0.3"/>
<stop offset="0.865967" stop-color="#B7C2D0" stop-opacity="0.3"/>
<stop offset="0.941937" stop-color="#BECCDE"/>
<stop offset="0.971275" stop-color="#CAD4DB"/>
<stop offset="0.996436" stop-color="#B7C2D0"/>
</linearGradient>
<linearGradient id="paint1_linear_40_1505" x1="318.299" y1="352.068" x2="318.299" y2="366.001" gradientUnits="userSpaceOnUse">
<stop stop-color="#D1DBE9" stop-opacity="0.6"/>
<stop offset="1" stop-color="#AAB5C6" stop-opacity="0.6"/>
</linearGradient>
<linearGradient id="paint2_linear_40_1505" x1="278.017" y1="346.313" x2="361.005" y2="346.313" gradientUnits="userSpaceOnUse">
<stop stop-color="#CFD9E7"/>
<stop offset="0.317518" stop-color="#CFD9E7" stop-opacity="0"/>
<stop offset="0.660584" stop-color="#CFD9E7" stop-opacity="0"/>
<stop offset="1" stop-color="#CFD9E7"/>
</linearGradient>
</defs>
</svg>
