<svg width="21" height="21" viewBox="0 0 21 21" fill="none" xmlns="http://www.w3.org/2000/svg">
<circle cx="10.5" cy="10.5" r="10.5" fill="#C1D6F8"/>
<path d="M6.26136 9.5V10.6818H3.53409V9.5H6.26136ZM7.08949 13V11.8636L9.25994 10.0682C9.40388 9.94886 9.52699 9.83712 9.62926 9.73295C9.73343 9.62689 9.81297 9.51799 9.8679 9.40625C9.92472 9.29451 9.95312 9.17045 9.95312 9.03409C9.95312 8.88447 9.92093 8.75663 9.85653 8.65057C9.79403 8.54451 9.70691 8.46307 9.59517 8.40625C9.48343 8.34754 9.35464 8.31818 9.20881 8.31818C9.06297 8.31818 8.93419 8.34754 8.82244 8.40625C8.71259 8.46496 8.62737 8.55114 8.56676 8.66477C8.50616 8.77841 8.47585 8.91667 8.47585 9.07955H6.97585C6.97585 8.67045 7.06771 8.31818 7.25142 8.02273C7.43513 7.72727 7.6946 7.5 8.02983 7.34091C8.36506 7.18182 8.75805 7.10227 9.20881 7.10227C9.67472 7.10227 10.0781 7.17708 10.419 7.3267C10.7618 7.47443 11.026 7.68277 11.2116 7.9517C11.3991 8.22064 11.4929 8.53598 11.4929 8.89773C11.4929 9.12121 11.4465 9.34375 11.3537 9.56534C11.2609 9.78504 11.0942 10.0284 10.8537 10.2955C10.6132 10.5625 10.2713 10.8807 9.82812 11.25L9.28267 11.7045V11.7386H11.5554V13H7.08949ZM14.7955 13.1591C14.267 13.1572 13.8106 13.035 13.4261 12.7926C13.0417 12.5502 12.7453 12.2008 12.5369 11.7443C12.3286 11.2879 12.2254 10.7405 12.2273 10.1023C12.2292 9.46212 12.3333 8.91856 12.5398 8.47159C12.7481 8.02462 13.0436 7.68466 13.4261 7.4517C13.8106 7.21875 14.267 7.10227 14.7955 7.10227C15.3239 7.10227 15.7803 7.2197 16.1648 7.45455C16.5492 7.6875 16.8456 8.02746 17.054 8.47443C17.2623 8.9214 17.3655 9.46402 17.3636 10.1023C17.3636 10.7443 17.2595 11.2936 17.0511 11.75C16.8428 12.2064 16.5464 12.5559 16.1619 12.7983C15.7794 13.0388 15.3239 13.1591 14.7955 13.1591ZM14.7955 11.875C15.0682 11.875 15.2917 11.733 15.4659 11.4489C15.642 11.1629 15.7292 10.714 15.7273 10.1023C15.7273 9.70265 15.6875 9.37595 15.608 9.12216C15.5284 8.86837 15.4186 8.68087 15.2784 8.55966C15.1383 8.43655 14.9773 8.375 14.7955 8.375C14.5227 8.375 14.3002 8.51326 14.1278 8.78977C13.9555 9.06629 13.8674 9.50379 13.8636 10.1023C13.8617 10.5095 13.9006 10.8447 13.9801 11.108C14.0597 11.3693 14.1695 11.5625 14.3097 11.6875C14.4517 11.8125 14.6136 11.875 14.7955 11.875Z" fill="white"/>
</svg>
