<svg width="12" height="12" viewBox="0 0 12 12" fill="none" xmlns="http://www.w3.org/2000/svg">
<path d="M0.999919 5.16832L5.16659 5.16832L5.16659 1.00166C5.16659 0.780644 5.25438 0.568682 5.41066 0.412402C5.56694 0.256121 5.77891 0.168325 5.99992 0.168325C6.22093 0.168325 6.43289 0.256121 6.58917 0.412402C6.74546 0.568682 6.83325 0.780644 6.83325 1.00166L6.83325 5.16832L10.9999 5.16832C11.2209 5.16832 11.4329 5.25612 11.5892 5.4124C11.7455 5.56868 11.8333 5.78064 11.8333 6.00166C11.8333 6.22267 11.7455 6.43463 11.5892 6.59091C11.4329 6.74719 11.2209 6.83499 10.9999 6.83499L6.83325 6.83499L6.83325 11.0017C6.83325 11.2227 6.74545 11.4346 6.58917 11.5909C6.43289 11.7472 6.22093 11.835 5.99992 11.835C5.7789 11.835 5.56694 11.7472 5.41066 11.5909C5.25438 11.4346 5.16659 11.2227 5.16659 11.0017L5.16659 6.83499L0.999918 6.83499C0.778904 6.83499 0.566943 6.74719 0.410662 6.59091C0.254382 6.43463 0.166585 6.22267 0.166585 6.00166C0.166585 5.78064 0.254382 5.56868 0.410662 5.4124C0.566943 5.25612 0.778905 5.16832 0.999919 5.16832Z" fill="#718EBF"/>
</svg>
