<svg width="10" height="21" viewBox="0 0 10 21" fill="none" xmlns="http://www.w3.org/2000/svg">
<path d="M1.59992 8.6C1.99992 9.2 2.49992 9.7 3.19992 10H7.19992C7.49992 9.9 7.69992 9.7 7.89992 9.5C8.89992 8.5 9.29992 7 8.79992 5.7L8.69992 5.5C8.59992 5.2 8.39992 5 8.19992 4.8C8.09992 4.6 7.89992 4.5 7.79992 4.3C7.39992 4 6.99992 3.7 6.59992 3.3C5.69992 2.4 5.59992 1 6.09992 0C5.59992 0.1 5.09992 0.4 4.69992 0.8C3.19992 2 2.59992 4.1 3.29992 6V6.2C3.29992 6.3 3.19992 6.4 3.09992 6.5C2.99992 6.6 2.79992 6.5 2.69992 6.4L2.59992 6.3C1.99992 5.5 1.89992 4.3 2.29992 3.3C1.39992 4.1 0.899923 5.4 0.999923 6.7C0.999923 7 1.09992 7.3 1.19992 7.6C1.19992 7.9 1.39992 8.3 1.59992 8.6ZM5.29992 7.1C5.39992 6.6 5.19992 6.2 5.09992 5.8C4.99992 5.4 4.99992 5 5.19992 4.6L5.49992 5.2C5.89992 5.8 6.59992 6 6.79992 6.8V7.1C6.79992 7.6 6.59992 8.1 6.29992 8.4C6.09992 8.5 5.89992 8.7 5.69992 8.7C5.09992 8.9 4.39992 8.6 3.99992 8.2C4.79992 8.2 5.19992 7.6 5.29992 7.1ZM7.99992 11V13H6.99992L5.99992 21H3.99992L2.99992 13H1.99992V11H7.99992Z" fill="#C1D6F8"/>
</svg>
