<svg width="12" height="18" viewBox="0 0 12 18" fill="none" xmlns="http://www.w3.org/2000/svg">
<path fill-rule="evenodd" clip-rule="evenodd" d="M9.64748 0.955867C8.4418 0.75826 7.22174 0.661536 5.99998 0.6667C4.51415 0.6667 3.28915 0.797533 2.35248 0.955867C1.40332 1.11587 0.929151 1.19587 0.532485 1.6842C0.136651 2.17253 0.157484 2.70003 0.199151 3.75503C0.343318 7.37837 1.12498 11.905 5.37498 12.305V15.25H4.18332C3.99074 15.2502 3.80415 15.317 3.65526 15.4391C3.50638 15.5613 3.4044 15.7312 3.36665 15.92L3.20832 16.7084H0.999984C0.834224 16.7084 0.675253 16.7742 0.558043 16.8914C0.440832 17.0086 0.374984 17.1676 0.374984 17.3334C0.374984 17.4991 0.440832 17.6581 0.558043 17.7753C0.675253 17.8925 0.834224 17.9584 0.999984 17.9584H11C11.1657 17.9584 11.3247 17.8925 11.4419 17.7753C11.5591 17.6581 11.625 17.4991 11.625 17.3334C11.625 17.1676 11.5591 17.0086 11.4419 16.8914C11.3247 16.7742 11.1657 16.7084 11 16.7084H8.79165L8.63332 15.92C8.59557 15.7312 8.49359 15.5613 8.3447 15.4391C8.19582 15.317 8.00923 15.2502 7.81665 15.25H6.62498V12.305C10.875 11.905 11.6575 7.3792 11.8008 3.75503C11.8425 2.70003 11.8642 2.1717 11.4675 1.6842C11.0708 1.19587 10.5967 1.11587 9.64748 0.955867ZM6.65582 3.8392C6.77003 3.88651 6.86766 3.96663 6.93634 4.06942C7.00501 4.17222 7.04167 4.29307 7.04165 4.4167V7.75003C7.04165 7.91579 6.9758 8.07477 6.85859 8.19198C6.74138 8.30919 6.58241 8.37503 6.41665 8.37503C6.25089 8.37503 6.09192 8.30919 5.97471 8.19198C5.8575 8.07477 5.79165 7.91579 5.79165 7.75003V5.92503L5.60832 6.10837C5.5511 6.16977 5.4821 6.21902 5.40543 6.25318C5.32877 6.28734 5.24601 6.30571 5.16209 6.30719C5.07817 6.30867 4.99481 6.29324 4.91699 6.2618C4.83916 6.23037 4.76847 6.18358 4.70912 6.12423C4.64977 6.06488 4.60298 5.99419 4.57155 5.91637C4.54011 5.83854 4.52468 5.75518 4.52616 5.67127C4.52764 5.58735 4.54601 5.50458 4.58017 5.42792C4.61433 5.35125 4.66358 5.28225 4.72498 5.22503L5.97498 3.97503C6.06233 3.88762 6.17362 3.82807 6.29481 3.80389C6.41599 3.77971 6.54162 3.792 6.65582 3.8392Z" fill="#C1D6F8"/>
</svg>
