<svg width="18" height="18" viewBox="0 0 18 18" fill="none" xmlns="http://www.w3.org/2000/svg">
<path d="M9.00008 7.33329C9.88414 7.33329 10.732 6.9821 11.3571 6.35698C11.9822 5.73186 12.3334 4.88401 12.3334 3.99996C12.3334 3.1159 11.9822 2.26806 11.3571 1.64294C10.732 1.01782 9.88414 0.666626 9.00008 0.666626C8.11603 0.666626 7.26818 1.01782 6.64306 1.64294C6.01794 2.26806 5.66675 3.1159 5.66675 3.99996C5.66675 4.88401 6.01794 5.73186 6.64306 6.35698C7.26818 6.9821 8.11603 7.33329 9.00008 7.33329ZM3.58341 9.83329C4.13595 9.83329 4.66585 9.6138 5.05655 9.2231C5.44725 8.8324 5.66675 8.30249 5.66675 7.74996C5.66675 7.19742 5.44725 6.66752 5.05655 6.27682C4.66585 5.88612 4.13595 5.66663 3.58341 5.66663C3.03088 5.66663 2.50098 5.88612 2.11028 6.27682C1.71957 6.66752 1.50008 7.19742 1.50008 7.74996C1.50008 8.30249 1.71957 8.8324 2.11028 9.2231C2.50098 9.6138 3.03088 9.83329 3.58341 9.83329ZM16.5001 7.74996C16.5001 8.30249 16.2806 8.8324 15.8899 9.2231C15.4992 9.6138 14.9693 9.83329 14.4167 9.83329C13.8642 9.83329 13.3343 9.6138 12.9436 9.2231C12.5529 8.8324 12.3334 8.30249 12.3334 7.74996C12.3334 7.19742 12.5529 6.66752 12.9436 6.27682C13.3343 5.88612 13.8642 5.66663 14.4167 5.66663C14.9693 5.66663 15.4992 5.88612 15.8899 6.27682C16.2806 6.66752 16.5001 7.19742 16.5001 7.74996ZM9.00008 8.16663C10.1052 8.16663 11.165 8.60561 11.9464 9.38701C12.7278 10.1684 13.1667 11.2282 13.1667 12.3333V17.3333H4.83341V12.3333C4.83341 11.2282 5.2724 10.1684 6.0538 9.38701C6.8352 8.60561 7.89501 8.16663 9.00008 8.16663ZM3.16675 12.3333C3.16675 11.7558 3.25008 11.1983 3.40675 10.6716L3.26508 10.6833C2.55081 10.7617 1.89063 11.1011 1.41113 11.6362C0.931633 12.1714 0.666562 12.8647 0.666748 13.5833V17.3333H3.16675V12.3333ZM17.3334 17.3333V13.5833C17.3335 12.8403 17.05 12.1252 16.5408 11.5841C16.0316 11.043 15.3351 10.7166 14.5934 10.6716C14.7492 11.1983 14.8334 11.7558 14.8334 12.3333V17.3333H17.3334Z" fill="#C1D6F8"/>
</svg>
